<?xml version="1.0" encoding="utf-8"?><!DOCTYPE svg PUBLIC "-//W3C//DTD SVG 1.1//EN" "http://www.w3.org/Graphics/SVG/1.1/DTD/svg11.dtd"><svg viewBox="0 0 512 512" xmlns="http://www.w3.org/2000/svg" xmlns:xlink="http://www.w3.org/1999/xlink"><style>:root>svg{display:none}:root>svg:target{display:block}</style><svg viewBox="0 0 22 20" id="cart" xmlns="http://www.w3.org/2000/svg"><path d="M1527.44 65a2.724 2.724 0 1 1 2.74-2.724 2.738 2.738 0 0 1-2.74 2.724Zm0-3.814a1.09 1.09 0 1 0 1.09 1.09 1.094 1.094 0 0 0-1.09-1.093Zm1.75-2.806h-12.81a.823.823 0 0 1-.8-.628l-2.68-11.115h-2.06a.817.817 0 1 1 0-1.634h2.71a.824.824 0 0 1 .8.627l.74 3.078h16.1a.818.818 0 0 1 .8 1.014l-2 8.038a.822.822 0 0 1-.8.617Zm-12.16-1.635h11.52l1.59-6.4h-14.65Zm.45 8.255a2.724 2.724 0 1 1 2.74-2.724 2.738 2.738 0 0 1-2.74 2.724Zm0-3.814a1.09 1.09 0 1 0 1.09 1.09 1.094 1.094 0 0 0-1.09-1.093Z" transform="translate(-1510 -45)" style="fill:#29282d;fill-rule:evenodd"/></svg><svg style="shape-rendering:geometricPrecision;text-rendering:geometricPrecision;image-rendering:optimizeQuality;fill-rule:evenodd;clip-rule:evenodd" viewBox="0 0 512 512" id="facebook" xmlns="http://www.w3.org/2000/svg"><path style="opacity:.99" d="M301.5-.5h53a1731.283 1731.283 0 0 0 34 3v82a796.223 796.223 0 0 0-62 1.5c-19.338 3.34-29.505 14.841-30.5 34.5-.5 21.997-.667 43.997-.5 66h90a8637.666 8637.666 0 0 0-11 92h-79v233h-95v-233h-78v-92h78c-.384-29.354.116-58.688 1.5-88 8.488-57.989 41.655-90.989 99.5-99Z"/></svg><svg style="shape-rendering:geometricPrecision;text-rendering:geometricPrecision;image-rendering:optimizeQuality;fill-rule:evenodd;clip-rule:evenodd" viewBox="0 0 512 512" id="google" xmlns="http://www.w3.org/2000/svg"><path style="opacity:.989" d="M233.5-.5h45c48.204 5.122 91.87 21.956 131 50.5 1.711 1.133 2.211 2.633 1.5 4.5l-59 76c-47.91-34.701-99.743-41.868-155.5-21.5-59.179 26.824-92.012 72.657-98.5 137.5-.963 64.963 26.204 114.13 81.5 147.5 50.668 25.933 101.335 25.933 152 0 35.693-20.201 60.36-49.701 74-88.5-49.996-1-99.996-1.333-150-1v-98h256v71c-12.541 100.266-64.541 171.766-156 214.5-25.184 10.296-51.184 16.796-78 19.5h-44C133.234 498.959 61.734 446.959 19 355.5c-10.296-25.184-16.796-51.184-19.5-78v-44C12.04 133.234 64.04 61.734 155.5 19c25.184-10.296 51.184-16.796 78-19.5Z"/></svg><svg viewBox="0 0 20 20" id="heart" xmlns="http://www.w3.org/2000/svg"><path d="M1484.78 49.589a6.683 6.683 0 0 0-4.17-4.371c-1.71-.595-3.75 0-5.58 1.611-1.83-1.569-3.88-2.122-5.58-1.569a6.884 6.884 0 0 0-4.17 4.371c-.47 1.57-.51 4.117 1.95 7.215 1.11 1.4 2.82 3.4 4.22 4.965 2.68 3.014 3.11 3.183 3.49 3.183h.17c.39 0 .77-.168 3.45-3.224a224.86 224.86 0 0 0 4.22-4.966c2.47-3.098 2.47-5.645 2-7.215Zm-3.28 6.2c-1.96 2.462-5.32 6.324-6.47 7.385-1.15-1.061-4.52-4.924-6.48-7.385-1.61-1.994-2.21-3.947-1.7-5.687a4.986 4.986 0 0 1 3.11-3.225c1.23-.467 2.9.169 4.43 1.655a.84.84 0 0 0 1.06.126.447.447 0 0 0 .22-.17c1.53-1.443 3.19-2.079 4.42-1.655a5.168 5.168 0 0 1 3.11 3.268c.51 1.699-.08 3.689-1.7 5.683Z" transform="translate(-1465.03 -45)" style="fill:#29282d;fill-rule:evenodd"/></svg><svg style="shape-rendering:geometricPrecision;text-rendering:geometricPrecision;image-rendering:optimizeQuality;fill-rule:evenodd;clip-rule:evenodd" viewBox="0 0 512 512" id="linkedin" xmlns="http://www.w3.org/2000/svg"><path style="opacity:.977" d="M90.5 50.5c31.451-2.354 50.951 11.646 58.5 42 2.037 29.607-11.129 48.441-39.5 56.5-31.011 2.972-50.511-10.528-58.5-40.5-2.38-30.091 10.786-49.425 39.5-58Z"/><path style="opacity:.987" d="M350.5 179.5c23.554-1.298 45.887 3.202 67 13.5 15.964 10.307 27.131 24.474 33.5 42.5a180.576 180.576 0 0 1 9 49c.5 58.666.667 117.332.5 176h-86c.167-53.001 0-106.001-.5-159-3.073-37.419-22.906-52.252-59.5-44.5-16.925 5.932-27.092 17.765-30.5 35.5a116.123 116.123 0 0 0-2 13c-.5 51.666-.667 103.332-.5 155h-86v-274h82c-.167 12.338 0 24.671.5 37 12.287-20.595 30.12-34.095 53.5-40.5a309.87 309.87 0 0 1 19-3.5Z"/><path style="opacity:.986" d="M56.5 186.5h86v274h-86v-274Z"/></svg><svg style="shape-rendering:geometricPrecision;text-rendering:geometricPrecision;image-rendering:optimizeQuality;fill-rule:evenodd;clip-rule:evenodd" viewBox="0 0 512 512" id="pinterest" xmlns="http://www.w3.org/2000/svg"><path style="opacity:.98" d="M237.5-.5h46c44.6 3.639 84.267 19.472 119 47.5 37.355 35.247 55.022 78.747 53 130.5-.452 52.187-15.952 99.187-46.5 141-33.868 41.171-77.368 58.338-130.5 51.5a93.457 93.457 0 0 1-25-9 1676.008 1676.008 0 0 1-32.5-21.5 1841.261 1841.261 0 0 1-15 64c-8.276 35.218-23.942 66.552-47 94a315.494 315.494 0 0 0-15.5 14h-3c-5.947-52.29-2.447-103.957 10.5-155a7383.692 7383.692 0 0 0 29.5-116c-10.357-20.169-13.523-41.502-9.5-64 3.215-21.264 12.382-39.43 27.5-54.5 17.925-12.816 36.592-13.816 56-3 11.065 8.481 16.398 19.815 16 34a197.147 197.147 0 0 1-7.5 40.5 1066.013 1066.013 0 0 0-18 61c-10.195 48.147 9.305 69.313 58.5 63.5 20.377-6.039 36.544-17.872 48.5-35.5 26.628-44.143 35.961-91.81 28-143-8.13-44.8-33.964-73.966-77.5-87.5-63.397-13.312-116.231 4.521-158.5 53.5-25.618 32.475-34.618 69.141-27 110a504.484 504.484 0 0 0 19 38c4.106 15.587 1.44 29.92-8 43-40.847-10.185-64.18-36.185-70-78C48.343 123.62 86.51 56.12 172.5 16c20.959-8.823 42.626-14.323 65-16.5Z"/></svg><svg viewBox="0 0 20.03 20" id="search" xmlns="http://www.w3.org/2000/svg"><path d="m1439.89 63.7-5.81-5.81a7.944 7.944 0 1 0-1.18 1.178l5.81 5.81a.417.417 0 0 0 .59 0l.59-.589a.421.421 0 0 0 0-.589Zm-11.96-4.533a6.25 6.25 0 1 1 6.25-6.25 6.254 6.254 0 0 1-6.25 6.246Z" transform="translate(-1420 -45)" style="fill:#29282d;fill-rule:evenodd"/></svg><svg style="shape-rendering:geometricPrecision;text-rendering:geometricPrecision;image-rendering:optimizeQuality;fill-rule:evenodd;clip-rule:evenodd" viewBox="0 0 512 512" id="twitter" xmlns="http://www.w3.org/2000/svg"><path style="opacity:.966" d="M4.5-.5h151a14411.585 14411.585 0 0 0 128.5 187A41751.148 41751.148 0 0 0 444.5-.5h46a2892083.222 2892083.222 0 0 1-186 217c67.359 98.351 134.692 196.685 202 295h-151a38439.625 38439.625 0 0 0-135.5-198 46638.41 46638.41 0 0 0-169.5 198h-46a62378.927 62378.927 0 0 1 195-227.5A128648.03 128648.03 0 0 0 4.5-.5Zm62 35c22.17-1.328 44.504-1.328 67 0a108221.599 108221.599 0 0 0 311 444.5 748.936 748.936 0 0 1-67-.5 2519863.61 2519863.61 0 0 0-311-444Z"/></svg><svg viewBox="0 0 20 20" id="user" xmlns="http://www.w3.org/2000/svg"><path d="M1392.07 57.928a9.923 9.923 0 0 0-3.8-2.383 5.78 5.78 0 1 0-6.54 0A10.018 10.018 0 0 0 1375 65h1.56a8.44 8.44 0 0 1 16.88 0h1.56a9.931 9.931 0 0 0-2.93-7.072Zm-11.29-7.148A4.22 4.22 0 1 1 1385 55a4.222 4.222 0 0 1-4.22-4.22Z" transform="translate(-1375 -45)" style="fill:#29282d;fill-rule:evenodd"/></svg></svg>