<?xml version="1.0" encoding="UTF-8"?>
<!DOCTYPE svg PUBLIC "-//W3C//DTD SVG 1.1//EN" "http://www.w3.org/Graphics/SVG/1.1/DTD/svg11.dtd">
<svg xmlns="http://www.w3.org/2000/svg" version="1.1" width="512px" height="512px" style="shape-rendering:geometricPrecision; text-rendering:geometricPrecision; image-rendering:optimizeQuality; fill-rule:evenodd; clip-rule:evenodd" xmlns:xlink="http://www.w3.org/1999/xlink">
<g><path style="opacity:0.98" fill="#000000" d="M 237.5,-0.5 C 252.833,-0.5 268.167,-0.5 283.5,-0.5C 328.1,3.13896 367.767,18.9723 402.5,47C 439.855,82.2473 457.522,125.747 455.5,177.5C 455.048,229.687 439.548,276.687 409,318.5C 375.132,359.671 331.632,376.838 278.5,370C 269.736,368.19 261.403,365.19 253.5,361C 242.581,353.958 231.748,346.791 221,339.5C 216.385,360.905 211.385,382.238 206,403.5C 197.724,438.718 182.058,470.052 159,497.5C 153.638,502.032 148.472,506.699 143.5,511.5C 142.5,511.5 141.5,511.5 140.5,511.5C 134.553,459.21 138.053,407.543 151,356.5C 161.149,317.903 170.983,279.236 180.5,240.5C 170.143,220.331 166.977,198.998 171,176.5C 174.215,155.236 183.382,137.07 198.5,122C 216.425,109.184 235.092,108.184 254.5,119C 265.565,127.481 270.898,138.815 270.5,153C 269.415,166.757 266.915,180.257 263,193.5C 256.393,213.655 250.393,233.989 245,254.5C 234.805,302.647 254.305,323.813 303.5,318C 323.877,311.961 340.044,300.128 352,282.5C 378.628,238.357 387.961,190.69 380,139.5C 371.87,94.7005 346.036,65.5338 302.5,52C 239.103,38.6878 186.269,56.5212 144,105.5C 118.382,137.975 109.382,174.641 117,215.5C 122.806,228.446 129.139,241.112 136,253.5C 140.106,269.087 137.44,283.42 128,296.5C 87.153,286.315 63.8197,260.315 58,218.5C 48.3432,123.62 86.5098,56.1199 172.5,16C 193.459,7.17725 215.126,1.67725 237.5,-0.5 Z"/></g>
</svg>
