<?xml version="1.0" encoding="utf-8"?><!DOCTYPE svg PUBLIC "-//W3C//DTD SVG 1.1//EN" "http://www.w3.org/Graphics/SVG/1.1/DTD/svg11.dtd"><svg viewBox="0 0 512 512" xmlns="http://www.w3.org/2000/svg" xmlns:xlink="http://www.w3.org/1999/xlink"><style>:root>svg{display:none}:root>svg:target{display:block}</style><svg viewBox="0 0 60 60" id="Icon1" xmlns="http://www.w3.org/2000/svg"><path style="fill:#ffb534" d="M0 0h60v60H0z"/><path data-name="icon" d="m462.2 1018.6-1.036-4.1a.614.614 0 0 0 .5-.6v-.66a2.621 2.621 0 0 0-2.631-2.6h-4.723v-1.36a1.286 1.286 0 0 0-1.3-1.28h-24.046a1.286 1.286 0 0 0-1.3 1.28v11.22a.627.627 0 0 0 1.253 0v-11.22a.037.037 0 0 1 .042-.04h24.051a.037.037 0 0 1 .042.04v11.22a.627.627 0 0 0 1.253 0v-.7h7.395a2.047 2.047 0 0 1 1.946 1.4H461.7a.624.624 0 0 0-.626.62v1.32a1.953 1.953 0 0 0 1.962 1.94h.71v2.72h-1.637a3.982 3.982 0 0 0-7.5 0h-.3v-4.66a.627.627 0 0 0-1.253 0v4.66h-13a3.981 3.981 0 0 0-7.5 0h-3.6a.043.043 0 0 1-.042-.04v-1.36h2.714a.62.62 0 1 0 0-1.24h-6.013a.62.62 0 1 0 0 1.24h2.046v1.36a1.286 1.286 0 0 0 1.3 1.28h3.383v.04a3.967 3.967 0 0 0 7.934 0v-.04h14.116v.04a3.967 3.967 0 0 0 7.934 0v-.04h2.048a.624.624 0 0 0 .626-.62v-6.6a3.276 3.276 0 0 0-2.802-3.22Zm-7.889-4.08h5.565l1.023 4.04h-6.589v-4.04Zm4.718-2.64a1.37 1.37 0 0 1 1.378 1.36v.04h-6.1v-1.4h4.718Zm-22.715 19.88a2.68 2.68 0 1 1 2.714-2.68 2.7 2.7 0 0 1-2.715 2.68Zm22.047 0a2.68 2.68 0 1 1 2.714-2.68 2.7 2.7 0 0 1-2.715 2.68Zm4.676-7.92a.7.7 0 0 1-.709-.7v-.7h1.419v1.4h-.71Zm-26.723 3.96a1.28 1.28 0 1 0 1.294 1.28 1.293 1.293 0 0 0-1.295-1.28Zm22.047 0a1.28 1.28 0 1 0 1.294 1.28 1.293 1.293 0 0 0-1.295-1.28Zm-17.329-2.02a.625.625 0 0 0 .626.62h9.354a.62.62 0 1 0 0-1.24h-9.354a.625.625 0 0 0-.627.62Zm-14.072-2.02h8.018a.62.62 0 1 0 0-1.24h-8.018a.62.62 0 1 0-.001 1.24Zm18.932-9.64-5.57 5.5-2.9-2.86a.635.635 0 0 0-.886 0 .619.619 0 0 0 0 .88l3.34 3.3a.635.635 0 0 0 .886 0l6.013-5.94a.619.619 0 0 0 0-.88.635.635 0 0 0-.884 0Z" transform="translate(-415 -990)" style="fill:#fff;fill-rule:evenodd"/></svg><svg viewBox="0 0 60 60" id="Icon2" xmlns="http://www.w3.org/2000/svg"><path style="fill:#34c3ff" d="M0 0h60v60H0z"/><path data-name="Icon" d="m857 1010.44-1.451-.11-.121 1.69a12.253 12.253 0 0 0-9.07-4.02 12.5 12.5 0 0 0 0 25 12.3 12.3 0 0 0 10.265-5.55l-1.207-.82a10.863 10.863 0 0 1-9.058 4.9 11.031 11.031 0 0 1 0-22.06 10.806 10.806 0 0 1 8.057 3.61l-1.851-.14-.106 1.47 4.234.31Zm-18.933 10.34a2.429 2.429 0 0 0 .947.24c.356 0 .608-.11.608-.37a.539.539 0 0 0-.624-.41h-.46v-.73h.443a.477.477 0 0 0 .554-.31c0-.17-.176-.29-.51-.29a2.022 2.022 0 0 0-.86.23l-.219-.74a2.666 2.666 0 0 1 1.309-.3 1.116 1.116 0 0 1 1.332.93.866.866 0 0 1-.7.84v.01a.87.87 0 0 1 .816.84c0 .7-.657 1.11-1.611 1.11a2.514 2.514 0 0 1-1.243-.28Zm4.617 1.05a1.538 1.538 0 1 1 .006 0h-.006Zm.011-.75c.28 0 .466-.35.466-1.11s-.186-1.11-.471-1.11-.471.34-.471 1.11.186 1.11.471 1.11Zm3.183-3a9.807 9.807 0 0 1 1.3-.08 2.885 2.885 0 0 1 1.66.38 1.569 1.569 0 0 1 .734 1.41 1.788 1.788 0 0 1-.679 1.52 3.173 3.173 0 0 1-1.917.5 7.786 7.786 0 0 1-1.1-.06v-3.67Zm1.035 2.92a1.826 1.826 0 0 0 .241.01 1.124 1.124 0 0 0 1.31-1.16 1.03 1.03 0 0 0-1.189-1.06 1.909 1.909 0 0 0-.362.03v2.18Zm5.725.09a3.849 3.849 0 0 0 .044.68h-.932l-.055-.23h-.021a1.012 1.012 0 0 1-.789.29.875.875 0 0 1-.943-.85c0-.74.647-1.07 1.666-1.07v-.02c0-.1-.066-.22-.471-.22a1.861 1.861 0 0 0-.817.21l-.18-.65a2.564 2.564 0 0 1 1.177-.26 1.134 1.134 0 0 1 1.321 1.21v.91Zm-1-.55c-.455 0-.674.11-.674.34a.247.247 0 0 0 .3.24.4.4 0 0 0 .367-.28.689.689 0 0 0 .011-.15v-.15Zm2.443-1.5.356 1.18c.044.16.1.38.137.51h.026c.038-.14.082-.36.115-.51l.268-1.18h1.129l-.57 1.56a4.369 4.369 0 0 1-1.09 2.02 1.683 1.683 0 0 1-.97.38l-.192-.88a1.2 1.2 0 0 0 .335-.07.955.955 0 0 0 .35-.25.223.223 0 0 0 .055-.13.406.406 0 0 0-.044-.16l-1.057-2.47h1.156Z" transform="translate(-815 -990)" style="fill:#fff;fill-rule:evenodd"/></svg><svg viewBox="0 0 60 60" id="Icon3" xmlns="http://www.w3.org/2000/svg"><path style="fill:#fe3e57" d="M0 0h60v60H0z"/><path data-name="Icon" d="M1257.38 1019.68a2.391 2.391 0 0 0-1.45-.6 2.114 2.114 0 0 0-1.6.6l-2.89 2.79a1.309 1.309 0 0 0-.19-.27 1.885 1.885 0 0 0-1.47-.64h-4.04a8.421 8.421 0 0 1-2.21-.29 5.543 5.543 0 0 0-5.08 1.05 6.581 6.581 0 0 0-1.32 1.39l-.73-.69a.506.506 0 0 0-.36-.14.514.514 0 0 0-.37.15l-3.52 3.57a.508.508 0 0 0-.15.36.52.52 0 0 0 .16.35l5.97 5.55a.518.518 0 0 0 .35.14.53.53 0 0 0 .37-.15l3.49-3.5a.554.554 0 0 0 .15-.36.5.5 0 0 0-.16-.35l-.3-.29.69-.08a10.862 10.862 0 0 1 1.28-.07h6.15a4.75 4.75 0 0 0 2.53-.64.01.01 0 0 0 .01-.01 3.055 3.055 0 0 0 .66-.58l4.14-4.76a1.711 1.711 0 0 0-.11-2.53Zm-18.91 12.12-5.23-4.86 2.81-2.86 5.2 4.93Zm18.25-10.24-4.15 4.77a2.861 2.861 0 0 1-.45.4 3.755 3.755 0 0 1-1.97.47h-6.16a12.623 12.623 0 0 0-1.38.08l-1.54.17-3.2-3.04a6.478 6.478 0 0 1 1.22-1.32 4.508 4.508 0 0 1 4.16-.86 9.348 9.348 0 0 0 2.49.33h4.04a.9.9 0 0 1 .92.97 1.091 1.091 0 0 1-.23.7.883.883 0 0 1-.7.28h-3.52a.512.512 0 0 0-.52.5.506.506 0 0 0 .52.5h3.52a1.9 1.9 0 0 0 1.47-.64 2.04 2.04 0 0 0 .49-1.27l3.33-3.22a1.222 1.222 0 0 1 1.63.03.742.742 0 0 1 .03 1.15Zm0 0-12.07 3.32a.5.5 0 0 0-.61-.37.489.489 0 0 0-.38.6v.02a.513.513 0 0 0 .5.38.375.375 0 0 0 .11-.01.5.5 0 0 0 .39-.6Zm0 0-9.19-6.35h4.98a1.242 1.242 0 0 0 .73-.23 1.2 1.2 0 0 0 .73.23h4.98a1.242 1.242 0 0 0 .73-.23 1.19 1.19 0 0 0 .72.23h4.98a1.221 1.221 0 0 0 1.24-1.21v-2.26a2.619 2.619 0 0 0-1.46-2.35 2.756 2.756 0 0 0 .68-1.83 2.951 2.951 0 0 0-5.9 0 2.808 2.808 0 0 0 .68 1.83 2.61 2.61 0 0 0-.94.8 2.73 2.73 0 0 0-.95-.8 2.808 2.808 0 0 0 .68-1.83 2.951 2.951 0 0 0-5.9 0 2.756 2.756 0 0 0 .68 1.83 2.643 2.643 0 0 0-.95.8 1.4 1.4 0 0 1-.27-2.63 2.951 2.951 0 0 0-5.9 0 2.808 2.808 0 0 0 .68 1.83 2.637 2.637 0 0 0-1.46 2.35v2.26a1.227 1.227 0 0 0 1.24 1.21Zm15.36-9.53a1.88 1.88 0 1 1-1.92 1.88 1.9 1.9 0 0 1 1.92-1.88Zm-1.33 4.45a2.99 2.99 0 0 0 1.33.31 2.958 2.958 0 0 0 1.33-.31 1.624 1.624 0 0 1 1.38 1.61v2.26a.214.214 0 0 1-.22.21h-4.98a.205.205 0 0 1-.21-.21v-2.26a1.625 1.625 0 0 1 1.37-1.61Zm-5.1-4.45a1.881 1.881 0 1 1-1.93 1.88 1.9 1.9 0 0 1 1.93-1.88Zm-1.33 4.45a2.958 2.958 0 0 0 1.33.31 2.99 2.99 0 0 0 1.33-.31 1.625 1.625 0 0 1 1.37 1.61v2.26a.205.205 0 0 1-.21.21h-4.98a.214.214 0 0 1-.22-.21v-2.26a1.624 1.624 0 0 1 1.38-1.61Zm-5.11-4.45a1.881 1.881 0 1 1-1.93 1.88 1.908 1.908 0 0 1 1.93-1.88Zm-2.71 6.06a1.633 1.633 0 0 1 1.38-1.61 3.008 3.008 0 0 0 2.66 0 1.633 1.633 0 0 1 1.38 1.61v2.26a.214.214 0 0 1-.22.21h-4.98a.214.214 0 0 1-.22-.21v-2.26Zm0 0" transform="translate(-1215 -990)" style="fill:#fff;fill-rule:evenodd"/></svg><svg viewBox="0 0 20 20" id="admin" xmlns="http://www.w3.org/2000/svg"><path d="M832.071 6018.93a9.992 9.992 0 0 0-3.8-2.39 5.781 5.781 0 1 0-6.542 0A10.038 10.038 0 0 0 815 6026h1.562a8.438 8.438 0 1 1 16.876 0H835a9.935 9.935 0 0 0-2.929-7.07Zm-11.29-7.15A4.219 4.219 0 1 1 825 6016a4.223 4.223 0 0 1-4.219-4.22Z" transform="translate(-815 -6006)" style="fill:#8d8d8d;fill-rule:evenodd"/></svg><svg viewBox="0 0 9 10" id="angle_right" xmlns="http://www.w3.org/2000/svg"><path d="m975.907 320.768-4.338-4.66a.279.279 0 0 0-.428 0l-.465.5a.331.331 0 0 0 0 .46l3.658 3.93-3.658 3.931a.322.322 0 0 0-.093.23.325.325 0 0 0 .093.23l.465.5a.279.279 0 0 0 .428 0l4.338-4.661A.326.326 0 0 0 976 321a.33.33 0 0 0-.093-.23Zm0 0-3.482.23a.325.325 0 0 0-.093-.23l-4.332-4.66a.279.279 0 0 0-.428 0l-.466.5a.331.331 0 0 0 0 .46l3.658 3.93-3.658 3.931a.331.331 0 0 0-.093.23.334.334 0 0 0 .093.23l.466.5a.279.279 0 0 0 .428 0l4.337-4.661a.322.322 0 0 0 .093-.23Zm0 0" transform="translate(-967 -316)" style="fill:#727272;fill-rule:evenodd"/></svg><svg viewBox="0 0 10 8" id="arrow" xmlns="http://www.w3.org/2000/svg"><path d="m910.836 6130.62-3.609-3.47a.574.574 0 0 0-.774 0l-.327.32a.511.511 0 0 0-.16.37.534.534 0 0 0 .16.38l2.105 2.03h-6.689a.518.518 0 0 0-.54.51v.45a.543.543 0 0 0 .54.54h6.713l-2.129 2.04a.508.508 0 0 0 0 .74l.327.32a.6.6 0 0 0 .387.15.556.556 0 0 0 .387-.16l3.609-3.47a.507.507 0 0 0 .164-.37.53.53 0 0 0-.16-.38" transform="translate(-901 -6127)" style="fill-rule:evenodd"/></svg><svg viewBox="0 0 16 20" id="bag" xmlns="http://www.w3.org/2000/svg"><path class="dcls-1" d="M16 17.29 14.855 4.4a.553.553 0 0 0-.547-.51h-2.354a3.95 3.95 0 0 0-7.9 0H1.7a.55.55 0 0 0-.547.51L.008 17.29v.05a2.854 2.854 0 0 0 3 2.67h10a2.854 2.854 0 0 0 3-2.67.257.257 0 0 0 0-.05ZM8.006 1.11a2.844 2.844 0 0 1 2.844 2.78H5.162a2.844 2.844 0 0 1 2.844-2.78Zm5 17.79h-10a1.763 1.763 0 0 1-1.9-1.53L2.206 5h1.847v1.68a.552.552 0 0 0 1.1 0V5h5.692v1.68a.552.552 0 0 0 1.1 0V5H13.8l1.1 12.37A1.765 1.765 0 0 1 13 18.9Zm0 0"/></svg><svg viewBox="0 0 22 20" id="cart" xmlns="http://www.w3.org/2000/svg"><path d="M1527.44 65a2.724 2.724 0 1 1 2.74-2.724 2.738 2.738 0 0 1-2.74 2.724Zm0-3.814a1.09 1.09 0 1 0 1.09 1.09 1.094 1.094 0 0 0-1.09-1.093Zm1.75-2.806h-12.81a.823.823 0 0 1-.8-.628l-2.68-11.115h-2.06a.817.817 0 1 1 0-1.634h2.71a.824.824 0 0 1 .8.627l.74 3.078h16.1a.818.818 0 0 1 .8 1.014l-2 8.038a.822.822 0 0 1-.8.617Zm-12.16-1.635h11.52l1.59-6.4h-14.65Zm.45 8.255a2.724 2.724 0 1 1 2.74-2.724 2.738 2.738 0 0 1-2.74 2.724Zm0-3.814a1.09 1.09 0 1 0 1.09 1.09 1.094 1.094 0 0 0-1.09-1.093Z" transform="translate(-1510 -45)" style="fill:#29282d;fill-rule:evenodd"/></svg><svg style="fill:#fe3e57" viewBox="0 0 20 20" id="checkmark" xmlns="http://www.w3.org/2000/svg"><path class="fcls-1" d="M17.071 2.92A10 10 0 1 0 20 9.99a9.931 9.931 0 0 0-2.929-7.07ZM10 18.82a8.83 8.83 0 1 1 8.828-8.83A8.838 8.838 0 0 1 10 18.82Zm3.949-12.04-5.174 5.18-2.724-2.73a.587.587 0 1 0-.829.83L8.36 13.2a.59.59 0 0 0 .829 0l5.588-5.59a.586.586 0 0 0-.828-.83Z"/></svg><svg viewBox="0 0 384 512" id="close" xmlns="http://www.w3.org/2000/svg"><!--! Font Awesome Pro 6.4.2 by @fontawesome - https://fontawesome.com License - https://fontawesome.com/license (Commercial License) Copyright 2023 Fonticons, Inc.--><path d="M342.6 150.6c12.5-12.5 12.5-32.8 0-45.3s-32.8-12.5-45.3 0L192 210.7 86.6 105.4c-12.5-12.5-32.8-12.5-45.3 0s-12.5 32.8 0 45.3L146.7 256 41.4 361.4c-12.5 12.5-12.5 32.8 0 45.3s32.8 12.5 45.3 0L192 301.3l105.4 105.3c12.5 12.5 32.8 12.5 45.3 0s12.5-32.8 0-45.3L237.3 256l105.3-105.4z"/></svg><svg style="fill:#ffff" viewBox="0 0 50 50" id="done" xmlns="http://www.w3.org/2000/svg"><path style="fill:#ffff" d="M41.938 8.625a2 2 0 0 0-1.626.938L21.5 38.343 9.312 27.814a1.992 1.992 0 0 0-2.03-.52 1.998 1.998 0 0 0-.595 3.52l13.938 12.062a2.005 2.005 0 0 0 1.582.453 2.01 2.01 0 0 0 1.387-.89L43.687 11.75a1.997 1.997 0 0 0-1.75-3.125Z"/></svg><svg style="shape-rendering:geometricPrecision;text-rendering:geometricPrecision;image-rendering:optimizeQuality;fill-rule:evenodd;clip-rule:evenodd" viewBox="0 0 512 512" id="facebook" xmlns="http://www.w3.org/2000/svg"><path style="opacity:.99" d="M301.5-.5h53a1731.283 1731.283 0 0 0 34 3v82a796.223 796.223 0 0 0-62 1.5c-19.338 3.34-29.505 14.841-30.5 34.5-.5 21.997-.667 43.997-.5 66h90a8637.666 8637.666 0 0 0-11 92h-79v233h-95v-233h-78v-92h78c-.384-29.354.116-58.688 1.5-88 8.488-57.989 41.655-90.989 99.5-99Z"/></svg><svg style="shape-rendering:geometricPrecision;text-rendering:geometricPrecision;image-rendering:optimizeQuality;fill-rule:evenodd;clip-rule:evenodd" viewBox="0 0 512 512" id="google" xmlns="http://www.w3.org/2000/svg"><path style="opacity:.989" d="M233.5-.5h45c48.204 5.122 91.87 21.956 131 50.5 1.711 1.133 2.211 2.633 1.5 4.5l-59 76c-47.91-34.701-99.743-41.868-155.5-21.5-59.179 26.824-92.012 72.657-98.5 137.5-.963 64.963 26.204 114.13 81.5 147.5 50.668 25.933 101.335 25.933 152 0 35.693-20.201 60.36-49.701 74-88.5-49.996-1-99.996-1.333-150-1v-98h256v71c-12.541 100.266-64.541 171.766-156 214.5-25.184 10.296-51.184 16.796-78 19.5h-44C133.234 498.959 61.734 446.959 19 355.5c-10.296-25.184-16.796-51.184-19.5-78v-44C12.04 133.234 64.04 61.734 155.5 19c25.184-10.296 51.184-16.796 78-19.5Z"/></svg><svg viewBox="0 0 15 15" id="grid" xmlns="http://www.w3.org/2000/svg"><path class="kcls-1" d="M0 3.75h3.75V0H0v3.75ZM5.625 15h3.75v-3.75h-3.75V15ZM0 15h3.75v-3.75H0V15Zm0-5.625h3.75v-3.75H0v3.75Zm5.625 0h3.75v-3.75h-3.75v3.75ZM11.25 0v3.75H15V0h-3.75ZM5.625 3.75h3.75V0h-3.75v3.75Zm5.625 5.625H15v-3.75h-3.75v3.75Zm0 5.625H15v-3.75h-3.75V15Z"/></svg><svg viewBox="0 0 20 20" id="heart" xmlns="http://www.w3.org/2000/svg"><path class="lcls-1" d="M19.75 4.589A6.683 6.683 0 0 0 15.58.218c-1.71-.595-3.75 0-5.58 1.611C8.17.26 6.12-.293 4.42.26A6.884 6.884 0 0 0 .25 4.631c-.47 1.57-.51 4.117 1.95 7.215 1.11 1.4 2.82 3.4 4.22 4.965 2.68 3.014 3.11 3.183 3.49 3.183h.17c.39 0 .77-.168 3.45-3.224a224.86 224.86 0 0 0 4.22-4.966c2.47-3.098 2.47-5.645 2-7.215Zm-3.28 6.2c-1.96 2.462-5.32 6.324-6.47 7.385-1.15-1.061-4.52-4.924-6.48-7.385-1.61-1.994-2.21-3.947-1.7-5.687a4.986 4.986 0 0 1 3.11-3.225c1.23-.467 2.9.169 4.43 1.655a.84.84 0 0 0 1.06.126.447.447 0 0 0 .22-.17c1.53-1.443 3.19-2.079 4.42-1.655a5.168 5.168 0 0 1 3.11 3.268c.51 1.699-.08 3.689-1.7 5.683Z"/></svg><svg viewBox="0 0 16 16" id="home" xmlns="http://www.w3.org/2000/svg"><path d="m893 310-7.771 6.858a.665.665 0 0 0-.064.925.639.639 0 0 0 .91.065l.286-.253v6.44a1.95 1.95 0 0 0 1.933 1.965h3.606v-5.274a1.138 1.138 0 0 1 1.128-1.146 1.138 1.138 0 0 1 1.128 1.146V326h3.544a1.95 1.95 0 0 0 1.934-1.965v-6.44l.286.253a.637.637 0 0 0 .909-.065.663.663 0 0 0-.064-.925Zm5.35 14.035a.65.65 0 0 1-.645.655h-2.256v-3.964a2.437 2.437 0 0 0-2.417-2.456 2.437 2.437 0 0 0-2.417 2.456v3.964h-2.32a.65.65 0 0 1-.645-.655v-7.578l5.35-4.722 5.35 4.722v7.578Z" transform="translate(-885 -310)" style="fill:#727272;fill-rule:evenodd"/></svg><svg style="shape-rendering:geometricPrecision;text-rendering:geometricPrecision;image-rendering:optimizeQuality;fill-rule:evenodd;clip-rule:evenodd" viewBox="0 0 512 512" id="linkedin" xmlns="http://www.w3.org/2000/svg"><path style="opacity:.977" d="M90.5 50.5c31.451-2.354 50.951 11.646 58.5 42 2.037 29.607-11.129 48.441-39.5 56.5-31.011 2.972-50.511-10.528-58.5-40.5-2.38-30.091 10.786-49.425 39.5-58Z"/><path style="opacity:.987" d="M350.5 179.5c23.554-1.298 45.887 3.202 67 13.5 15.964 10.307 27.131 24.474 33.5 42.5a180.576 180.576 0 0 1 9 49c.5 58.666.667 117.332.5 176h-86c.167-53.001 0-106.001-.5-159-3.073-37.419-22.906-52.252-59.5-44.5-16.925 5.932-27.092 17.765-30.5 35.5a116.123 116.123 0 0 0-2 13c-.5 51.666-.667 103.332-.5 155h-86v-274h82c-.167 12.338 0 24.671.5 37 12.287-20.595 30.12-34.095 53.5-40.5a309.87 309.87 0 0 1 19-3.5Z"/><path style="opacity:.986" d="M56.5 186.5h86v274h-86v-274Z"/></svg><svg style="fill:#8d8d8d" viewBox="0 0 20 15" id="list" xmlns="http://www.w3.org/2000/svg"><path class="rcls-1" d="M.007 0h4.422v4.172H.007V0Zm5.828 0h14.159v4.172H5.835V0ZM.007 5.413h4.422v4.172H.007V5.413Zm5.828 0h14.159v4.172H5.835V5.413ZM.007 10.827h4.422V15H.007v-4.171Zm5.828 0h14.159V15H5.835v-4.171Z"/></svg><svg style="shape-rendering:geometricPrecision;text-rendering:geometricPrecision;image-rendering:optimizeQuality;fill-rule:evenodd;clip-rule:evenodd" viewBox="0 0 512 512" id="pinterest" xmlns="http://www.w3.org/2000/svg"><path style="opacity:.98" d="M237.5-.5h46c44.6 3.639 84.267 19.472 119 47.5 37.355 35.247 55.022 78.747 53 130.5-.452 52.187-15.952 99.187-46.5 141-33.868 41.171-77.368 58.338-130.5 51.5a93.457 93.457 0 0 1-25-9 1676.008 1676.008 0 0 1-32.5-21.5 1841.261 1841.261 0 0 1-15 64c-8.276 35.218-23.942 66.552-47 94a315.494 315.494 0 0 0-15.5 14h-3c-5.947-52.29-2.447-103.957 10.5-155a7383.692 7383.692 0 0 0 29.5-116c-10.357-20.169-13.523-41.502-9.5-64 3.215-21.264 12.382-39.43 27.5-54.5 17.925-12.816 36.592-13.816 56-3 11.065 8.481 16.398 19.815 16 34a197.147 197.147 0 0 1-7.5 40.5 1066.013 1066.013 0 0 0-18 61c-10.195 48.147 9.305 69.313 58.5 63.5 20.377-6.039 36.544-17.872 48.5-35.5 26.628-44.143 35.961-91.81 28-143-8.13-44.8-33.964-73.966-77.5-87.5-63.397-13.312-116.231 4.521-158.5 53.5-25.618 32.475-34.618 69.141-27 110a504.484 504.484 0 0 0 19 38c4.106 15.587 1.44 29.92-8 43-40.847-10.185-64.18-36.185-70-78C48.343 123.62 86.51 56.12 172.5 16c20.959-8.823 42.626-14.323 65-16.5Z"/></svg><svg data-name="play btn" viewBox="0 0 130 130" id="play_btn" xmlns="http://www.w3.org/2000/svg"><circle data-name="Ellipse 7 copy 2" cx="65" cy="65" r="65" style="opacity:.2;fill:#fe3e57"/><circle data-name="Ellipse 7 copy" cx="65" cy="65" r="55" style="opacity:.6;fill:#fe3e57"/><circle cx="65" cy="65" r="45" style="fill:#fe3e57"/><path d="m649.816 2630.14-11.824-7.6a2.934 2.934 0 0 0-1.554-.54 1.507 1.507 0 0 0-1.431 1.78v16.44a1.507 1.507 0 0 0 1.429 1.78 3 3 0 0 0 1.546-.54l11.83-7.6a2.056 2.056 0 0 0 0-3.72" transform="translate(-578 -2567)" style="fill:#fff;fill-rule:evenodd"/></svg><svg viewBox="0 0 20.03 20" id="search" xmlns="http://www.w3.org/2000/svg"><path class="ucls-1" d="m19.89 18.7-5.81-5.81a7.944 7.944 0 1 0-1.18 1.178l5.81 5.81a.417.417 0 0 0 .59 0l.59-.589a.421.421 0 0 0 0-.589ZM7.93 14.167a6.25 6.25 0 1 1 6.25-6.25 6.254 6.254 0 0 1-6.25 6.246Z"/></svg><svg viewBox="0 0 65 52" id="shapedecore_2" xmlns="http://www.w3.org/2000/svg"><path d="M1505.75 1203a1.735 1.735 0 1 1-1.75 1.73 1.741 1.741 0 0 1 1.75-1.73Zm12.3 0a1.735 1.735 0 1 1-1.77 1.73 1.75 1.75 0 0 1 1.77-1.73Zm12.29 0a1.735 1.735 0 1 1-1.75 1.73 1.741 1.741 0 0 1 1.75-1.73Zm12.32 0a1.735 1.735 0 1 1-1.75 1.73 1.748 1.748 0 0 1 1.75-1.73Zm12.29 0a1.735 1.735 0 1 1-1.76 1.73 1.752 1.752 0 0 1 1.76-1.73Zm12.3 0a1.735 1.735 0 1 1-1.75 1.73 1.741 1.741 0 0 1 1.75-1.73Zm-61.5 12.12a1.735 1.735 0 1 1-1.75 1.74 1.743 1.743 0 0 1 1.75-1.74Zm12.3 0a1.735 1.735 0 1 1-1.77 1.74 1.752 1.752 0 0 1 1.77-1.74Zm12.29 0a1.735 1.735 0 1 1-1.75 1.74 1.743 1.743 0 0 1 1.75-1.74Zm12.32 0a1.735 1.735 0 1 1-1.75 1.74 1.75 1.75 0 0 1 1.75-1.74Zm12.29 0a1.735 1.735 0 1 1-1.76 1.74 1.754 1.754 0 0 1 1.76-1.74Zm12.3 0a1.735 1.735 0 1 1-1.75 1.74 1.743 1.743 0 0 1 1.75-1.74Zm-61.5 12.16a1.72 1.72 0 1 1-1.75 1.72 1.733 1.733 0 0 1 1.75-1.72Zm12.3 0a1.721 1.721 0 1 1-1.77 1.72 1.742 1.742 0 0 1 1.77-1.72Zm12.29 0a1.72 1.72 0 1 1-1.75 1.72 1.733 1.733 0 0 1 1.75-1.72Zm12.32 0a1.72 1.72 0 1 1-1.75 1.72 1.739 1.739 0 0 1 1.75-1.72Zm12.29 0a1.72 1.72 0 1 1-1.76 1.72 1.744 1.744 0 0 1 1.76-1.72Zm12.3 0a1.72 1.72 0 1 1-1.75 1.72 1.733 1.733 0 0 1 1.75-1.72Zm-61.5 12.13a1.73 1.73 0 1 1-1.75 1.73 1.735 1.735 0 0 1 1.75-1.73Zm12.3 0a1.73 1.73 0 1 1-1.77 1.73 1.744 1.744 0 0 1 1.77-1.73Zm12.29 0a1.73 1.73 0 1 1-1.75 1.73 1.735 1.735 0 0 1 1.75-1.73Zm12.32 0a1.73 1.73 0 1 1-1.75 1.73 1.741 1.741 0 0 1 1.75-1.73Zm12.29 0a1.73 1.73 0 1 1-1.76 1.73 1.746 1.746 0 0 1 1.76-1.73Zm12.3 0a1.73 1.73 0 1 1-1.75 1.73 1.735 1.735 0 0 1 1.75-1.73Zm-61.5 12.12a1.735 1.735 0 1 1-1.75 1.74 1.743 1.743 0 0 1 1.75-1.74Zm12.3 0a1.735 1.735 0 1 1-1.77 1.74 1.752 1.752 0 0 1 1.77-1.74Zm12.29 0a1.735 1.735 0 1 1-1.75 1.74 1.743 1.743 0 0 1 1.75-1.74Zm12.32 0a1.735 1.735 0 1 1-1.75 1.74 1.75 1.75 0 0 1 1.75-1.74Zm12.29 0a1.735 1.735 0 1 1-1.76 1.74 1.754 1.754 0 0 1 1.76-1.74Zm12.3 0a1.735 1.735 0 1 1-1.75 1.74 1.743 1.743 0 0 1 1.75-1.74Z" transform="translate(-1504 -1203)" style="fill:#fe3e57;fill-rule:evenodd"/></svg><svg viewBox="0 0 576 512" id="star" xmlns="http://www.w3.org/2000/svg"><!--!Font Awesome Free 6.5.1 by @fontawesome - https://fontawesome.com License - https://fontawesome.com/license/free Copyright 2023 Fonticons, Inc.--><path fill="#1E3050" d="M316.9 18c-5.3-11-16.5-18-28.8-18s-23.4 7-28.8 18L195 150.3 51.4 171.5c-12 1.8-22 10.2-25.7 21.7s-.7 24.2 7.9 32.7L137.8 329l-24.6 145.7c-2 12 3 24.2 12.9 31.3s23 8 33.8 2.3l128.3-68.5 128.3 68.5c10.8 5.7 23.9 4.9 33.8-2.3s14.9-19.3 12.9-31.3L438.5 329l104.2-103.1c8.6-8.5 11.7-21.2 7.9-32.7s-13.7-19.9-25.7-21.7l-143.7-21.2L316.9 18z"/></svg><svg viewBox="0 0 20 20" id="time" xmlns="http://www.w3.org/2000/svg"><path d="M565.9 6011.26a.832.832 0 0 0-.387 1.11 8.318 8.318 0 1 1-2.335-2.91.831.831 0 1 0 1.037-1.3A10 10 0 1 0 568 6016a9.9 9.9 0 0 0-.992-4.35.83.83 0 0 0-1.113-.39Zm-7.9-1.93a.839.839 0 0 0-.833.84v5.83a.831.831 0 0 0 .833.83h4.167a.83.83 0 1 0 0-1.66h-3.334v-5a.839.839 0 0 0-.833-.84Zm0 0" transform="translate(-548 -6006)" style="fill:#8d8d8d;fill-rule:evenodd"/></svg><svg style="shape-rendering:geometricPrecision;text-rendering:geometricPrecision;image-rendering:optimizeQuality;fill-rule:evenodd;clip-rule:evenodd" viewBox="0 0 512 512" id="twitter" xmlns="http://www.w3.org/2000/svg"><path style="opacity:.966" d="M4.5-.5h151a14411.585 14411.585 0 0 0 128.5 187A41751.148 41751.148 0 0 0 444.5-.5h46a2892083.222 2892083.222 0 0 1-186 217c67.359 98.351 134.692 196.685 202 295h-151a38439.625 38439.625 0 0 0-135.5-198 46638.41 46638.41 0 0 0-169.5 198h-46a62378.927 62378.927 0 0 1 195-227.5A128648.03 128648.03 0 0 0 4.5-.5Zm62 35c22.17-1.328 44.504-1.328 67 0a108221.599 108221.599 0 0 0 311 444.5 748.936 748.936 0 0 1-67-.5 2519863.61 2519863.61 0 0 0-311-444Z"/></svg><svg viewBox="0 0 20 20" id="user" xmlns="http://www.w3.org/2000/svg"><path d="M1392.07 57.928a9.923 9.923 0 0 0-3.8-2.383 5.78 5.78 0 1 0-6.54 0A10.018 10.018 0 0 0 1375 65h1.56a8.44 8.44 0 0 1 16.88 0h1.56a9.931 9.931 0 0 0-2.93-7.072Zm-11.29-7.148A4.22 4.22 0 1 1 1385 55a4.222 4.222 0 0 1-4.22-4.22Z" transform="translate(-1375 -45)" style="fill:#29282d;fill-rule:evenodd"/></svg></svg>